<mxfile host="app.diagrams.net" agent="Mozilla/5.0 (Windows NT 10.0; Win64; x64; rv:138.0) Gecko/20100101 Firefox/138.0" version="27.0.5">
  <diagram name="Page-1" id="2KuapKHPaFfON-KTrQ2W">
    <mxGraphModel dx="1572" dy="942" grid="1" gridSize="10" guides="1" tooltips="1" connect="1" arrows="1" fold="1" page="1" pageScale="1" pageWidth="3300" pageHeight="4681" math="0" shadow="0">
      <root>
        <mxCell id="0" />
        <mxCell id="1" parent="0" />
        <mxCell id="aLVupdV_c1AP2KSebhh2-3" style="edgeStyle=orthogonalEdgeStyle;rounded=0;orthogonalLoop=1;jettySize=auto;html=1;exitX=1;exitY=0.5;exitDx=0;exitDy=0;entryX=0;entryY=0.5;entryDx=0;entryDy=0;" edge="1" parent="1" source="aLVupdV_c1AP2KSebhh2-1" target="aLVupdV_c1AP2KSebhh2-2">
          <mxGeometry relative="1" as="geometry" />
        </mxCell>
        <mxCell id="aLVupdV_c1AP2KSebhh2-1" value="data:numeric&#xa;Physiological&#xa;Signals" style="rectangle;fillColor=#fff2cc;strokeColor=#d6b656;" name="data" vertex="1" parent="1">
          <mxGeometry x="340" y="230" width="100" height="50" as="geometry" />
        </mxCell>
        <mxCell id="aLVupdV_c1AP2KSebhh2-5" style="edgeStyle=orthogonalEdgeStyle;rounded=0;orthogonalLoop=1;jettySize=auto;html=1;exitX=1;exitY=0.5;exitDx=0;exitDy=0;entryX=0.5;entryY=0;entryDx=0;entryDy=0;" edge="1" parent="1" source="aLVupdV_c1AP2KSebhh2-2" target="aLVupdV_c1AP2KSebhh2-4">
          <mxGeometry relative="1" as="geometry" />
        </mxCell>
        <mxCell id="aLVupdV_c1AP2KSebhh2-2" value="transform" style="rounded=1;whiteSpace=wrap;html=1;arcSize=50;fillColor=#f8cecc;strokeColor=#b85450;" name="transform" vertex="1" parent="1">
          <mxGeometry x="520" y="230" width="100" height="50" as="geometry" />
        </mxCell>
        <mxCell id="aLVupdV_c1AP2KSebhh2-7" style="edgeStyle=orthogonalEdgeStyle;rounded=0;orthogonalLoop=1;jettySize=auto;html=1;exitX=0.5;exitY=1;exitDx=0;exitDy=0;entryX=1;entryY=0.5;entryDx=0;entryDy=0;" edge="1" parent="1" source="aLVupdV_c1AP2KSebhh2-4" target="aLVupdV_c1AP2KSebhh2-6">
          <mxGeometry relative="1" as="geometry" />
        </mxCell>
        <mxCell id="aLVupdV_c1AP2KSebhh2-4" value="data:numeric&#xa;Resampled&#xa;Signals" style="rectangle;fillColor=#fff2cc;strokeColor=#d6b656;" name="data" vertex="1" parent="1">
          <mxGeometry x="650" y="330" width="100" height="50" as="geometry" />
        </mxCell>
        <mxCell id="aLVupdV_c1AP2KSebhh2-9" style="edgeStyle=orthogonalEdgeStyle;rounded=0;orthogonalLoop=1;jettySize=auto;html=1;exitX=0;exitY=0.5;exitDx=0;exitDy=0;entryX=0.5;entryY=0;entryDx=0;entryDy=0;" edge="1" parent="1" source="aLVupdV_c1AP2KSebhh2-6" target="aLVupdV_c1AP2KSebhh2-8">
          <mxGeometry relative="1" as="geometry" />
        </mxCell>
        <mxCell id="aLVupdV_c1AP2KSebhh2-6" value="transform" style="rounded=1;whiteSpace=wrap;html=1;arcSize=50;fillColor=#f8cecc;strokeColor=#b85450;" name="transform" vertex="1" parent="1">
          <mxGeometry x="520" y="430" width="100" height="50" as="geometry" />
        </mxCell>
        <mxCell id="aLVupdV_c1AP2KSebhh2-11" style="edgeStyle=orthogonalEdgeStyle;rounded=0;orthogonalLoop=1;jettySize=auto;html=1;exitX=0;exitY=0.5;exitDx=0;exitDy=0;entryX=0.5;entryY=0;entryDx=0;entryDy=0;" edge="1" parent="1" source="aLVupdV_c1AP2KSebhh2-8" target="aLVupdV_c1AP2KSebhh2-10">
          <mxGeometry relative="1" as="geometry" />
        </mxCell>
        <mxCell id="aLVupdV_c1AP2KSebhh2-16" style="edgeStyle=orthogonalEdgeStyle;rounded=0;orthogonalLoop=1;jettySize=auto;html=1;exitX=0.5;exitY=1;exitDx=0;exitDy=0;entryX=0;entryY=0.5;entryDx=0;entryDy=0;" edge="1" parent="1" source="aLVupdV_c1AP2KSebhh2-8" target="aLVupdV_c1AP2KSebhh2-14">
          <mxGeometry relative="1" as="geometry" />
        </mxCell>
        <mxCell id="aLVupdV_c1AP2KSebhh2-8" value="data:numeric&#xa;Seperated Signal&#xa;Components" style="rectangle;fillColor=#fff2cc;strokeColor=#d6b656;" name="data" vertex="1" parent="1">
          <mxGeometry x="390" y="530" width="100" height="50" as="geometry" />
        </mxCell>
        <mxCell id="aLVupdV_c1AP2KSebhh2-13" style="edgeStyle=orthogonalEdgeStyle;rounded=0;orthogonalLoop=1;jettySize=auto;html=1;exitX=0.5;exitY=1;exitDx=0;exitDy=0;entryX=0;entryY=0.5;entryDx=0;entryDy=0;" edge="1" parent="1" source="aLVupdV_c1AP2KSebhh2-10" target="aLVupdV_c1AP2KSebhh2-12">
          <mxGeometry relative="1" as="geometry" />
        </mxCell>
        <mxCell id="aLVupdV_c1AP2KSebhh2-10" value="transform" style="rounded=1;whiteSpace=wrap;html=1;arcSize=50;fillColor=#f8cecc;strokeColor=#b85450;" name="transform" vertex="1" parent="1">
          <mxGeometry x="260" y="630" width="100" height="50" as="geometry" />
        </mxCell>
        <mxCell id="aLVupdV_c1AP2KSebhh2-18" style="edgeStyle=orthogonalEdgeStyle;rounded=0;orthogonalLoop=1;jettySize=auto;html=1;exitX=1;exitY=0.5;exitDx=0;exitDy=0;entryX=0.25;entryY=1;entryDx=0;entryDy=0;" edge="1" parent="1" source="aLVupdV_c1AP2KSebhh2-12" target="aLVupdV_c1AP2KSebhh2-14">
          <mxGeometry relative="1" as="geometry" />
        </mxCell>
        <mxCell id="aLVupdV_c1AP2KSebhh2-12" value="symbol&#xa;Degree of&#xa;Correlation" style="rectangle;fillColor=#dae8fc;strokeColor=#6c8ebf;" name="symbol" vertex="1" parent="1">
          <mxGeometry x="390" y="730" width="100" height="50" as="geometry" />
        </mxCell>
        <mxCell id="aLVupdV_c1AP2KSebhh2-19" style="edgeStyle=orthogonalEdgeStyle;rounded=0;orthogonalLoop=1;jettySize=auto;html=1;exitX=0.5;exitY=0;exitDx=0;exitDy=0;entryX=0;entryY=0.5;entryDx=0;entryDy=0;" edge="1" parent="1" source="aLVupdV_c1AP2KSebhh2-14" target="aLVupdV_c1AP2KSebhh2-17">
          <mxGeometry relative="1" as="geometry" />
        </mxCell>
        <mxCell id="aLVupdV_c1AP2KSebhh2-14" value="generate:train" style="rounded=1;whiteSpace=wrap;html=1;arcSize=50;fillColor=#e1d5e7;strokeColor=#9673a6;" name="generate:train" vertex="1" parent="1">
          <mxGeometry x="520" y="630" width="100" height="50" as="geometry" />
        </mxCell>
        <mxCell id="aLVupdV_c1AP2KSebhh2-17" value="model:semantic&#xa;NFIS" style="shape=hexagon;perimeter=hexagonPerimeter2;fillColor=#b0e3e6;strokeColor=#0e8088;" name="model" vertex="1" parent="1">
          <mxGeometry x="650" y="530" width="120" height="50" as="geometry" />
        </mxCell>
        <mxCell id="aLVupdV_c1AP2KSebhh2-20" value="model:statistical&#xa;AR" style="shape=hexagon;perimeter=hexagonPerimeter2;fillColor=#b0e3e6;strokeColor=#0e8088;" name="model" vertex="1" parent="1">
          <mxGeometry x="650" y="730" width="120" height="50" as="geometry" />
        </mxCell>
        <mxCell id="aLVupdV_c1AP2KSebhh2-22" value="&lt;div&gt;error&lt;/div&gt;&lt;div&gt;|&lt;/div&gt;&lt;div&gt;&amp;nbsp;&amp;nbsp;&amp;nbsp; --&amp;gt;&lt;/div&gt;" style="text;html=1;align=center;verticalAlign=middle;whiteSpace=wrap;rounded=0;dashed=1;fillColor=#f5f5f5;fontColor=#333333;strokeColor=#666666;strokeWidth=2;" name="text" vertex="1" parent="1">
          <mxGeometry x="570" y="680" width="80" height="100" as="geometry" />
        </mxCell>
        <mxCell id="aLVupdV_c1AP2KSebhh2-29" style="edgeStyle=orthogonalEdgeStyle;rounded=0;orthogonalLoop=1;jettySize=auto;html=1;exitX=1;exitY=0.5;exitDx=0;exitDy=0;entryX=0;entryY=0.5;entryDx=0;entryDy=0;" edge="1" parent="1" source="aLVupdV_c1AP2KSebhh2-23" target="aLVupdV_c1AP2KSebhh2-28">
          <mxGeometry relative="1" as="geometry" />
        </mxCell>
        <mxCell id="aLVupdV_c1AP2KSebhh2-23" value="generate:engineer" style="rounded=1;whiteSpace=wrap;html=1;arcSize=50;fillColor=#e1d5e7;strokeColor=#9673a6;" name="generate:engineer" vertex="1" parent="1">
          <mxGeometry x="800" y="630" width="100" height="50" as="geometry" />
        </mxCell>
        <mxCell id="aLVupdV_c1AP2KSebhh2-26" value="&lt;div&gt;error&lt;/div&gt;&lt;div&gt;--&lt;/div&gt;&lt;div&gt;&amp;nbsp;&amp;nbsp; |&lt;/div&gt;&lt;div&gt;&amp;nbsp;&amp;nbsp; v&lt;/div&gt;" style="text;html=1;align=center;verticalAlign=middle;whiteSpace=wrap;rounded=0;dashed=1;fillColor=#f5f5f5;fontColor=#333333;strokeColor=#666666;strokeWidth=2;" name="text" vertex="1" parent="1">
          <mxGeometry x="770" y="530" width="80" height="100" as="geometry" />
        </mxCell>
        <mxCell id="aLVupdV_c1AP2KSebhh2-27" value="&lt;div&gt;error&lt;/div&gt;&lt;div&gt;&amp;nbsp; ^&lt;/div&gt;&lt;div&gt;&amp;nbsp; |&lt;/div&gt;&lt;div&gt;--&lt;/div&gt;" style="text;html=1;align=center;verticalAlign=middle;whiteSpace=wrap;rounded=0;dashed=1;fillColor=#f5f5f5;fontColor=#333333;strokeColor=#666666;strokeWidth=2;" name="text" vertex="1" parent="1">
          <mxGeometry x="770" y="680" width="80" height="105" as="geometry" />
        </mxCell>
        <mxCell id="aLVupdV_c1AP2KSebhh2-31" style="edgeStyle=orthogonalEdgeStyle;rounded=0;orthogonalLoop=1;jettySize=auto;html=1;exitX=1;exitY=0.5;exitDx=0;exitDy=0;entryX=0;entryY=0.5;entryDx=0;entryDy=0;" edge="1" parent="1" source="aLVupdV_c1AP2KSebhh2-28" target="aLVupdV_c1AP2KSebhh2-30">
          <mxGeometry relative="1" as="geometry" />
        </mxCell>
        <mxCell id="aLVupdV_c1AP2KSebhh2-28" value="model:hybrid&#xa;ANFIS" style="shape=hexagon;perimeter=hexagonPerimeter2;fillColor=#b0e3e6;strokeColor=#0e8088;" name="model" vertex="1" parent="1">
          <mxGeometry x="980" y="630" width="120" height="50" as="geometry" />
        </mxCell>
        <mxCell id="aLVupdV_c1AP2KSebhh2-30" value="infer:deduce" style="rounded=1;whiteSpace=wrap;html=1;arcSize=50;fillColor=#bac8d3;strokeColor=#23445d;" name="infer:deduce" vertex="1" parent="1">
          <mxGeometry x="1180" y="630" width="100" height="50" as="geometry" />
        </mxCell>
        <mxCell id="aLVupdV_c1AP2KSebhh2-33" style="edgeStyle=orthogonalEdgeStyle;rounded=0;orthogonalLoop=1;jettySize=auto;html=1;exitX=0.5;exitY=0;exitDx=0;exitDy=0;entryX=0.5;entryY=1;entryDx=0;entryDy=0;" edge="1" parent="1" source="aLVupdV_c1AP2KSebhh2-32" target="aLVupdV_c1AP2KSebhh2-30">
          <mxGeometry relative="1" as="geometry" />
        </mxCell>
        <mxCell id="aLVupdV_c1AP2KSebhh2-32" value="symbol&#xa;Cardiovascular&#xa;Predictions" style="rectangle;fillColor=#dae8fc;strokeColor=#6c8ebf;" name="symbol" vertex="1" parent="1">
          <mxGeometry x="1180" y="760" width="100" height="50" as="geometry" />
        </mxCell>
        <mxCell id="aLVupdV_c1AP2KSebhh2-34" value="data&#xa;Physiological Data" style="rectangle;fillColor=#fff2cc;strokeColor=#d6b656;" name="data" vertex="1" parent="1">
          <mxGeometry x="1360" y="630" width="100" height="50" as="geometry" />
        </mxCell>
        <mxCell id="aLVupdV_c1AP2KSebhh2-36" value="&lt;div&gt;error&lt;/div&gt;&lt;div&gt;--&amp;gt;&lt;/div&gt;" style="text;html=1;align=center;verticalAlign=middle;whiteSpace=wrap;rounded=0;dashed=1;fillColor=#f5f5f5;fontColor=#333333;strokeColor=#666666;strokeWidth=2;" name="text" vertex="1" parent="1">
          <mxGeometry x="1280" y="640" width="80" height="30" as="geometry" />
        </mxCell>
      </root>
    </mxGraphModel>
  </diagram>
</mxfile>
